<svg width="92" height="92" viewBox="0 0 92 92" fill="none" xmlns="http://www.w3.org/2000/svg">
<g filter="url(#filter0_di_1379_250)">
<rect x="2" y="2" width="88" height="88" rx="16" fill="#17396B"/>
<rect x="3" y="3" width="86" height="86" rx="15" stroke="#3767AC" stroke-width="2"/>
<g clip-path="url(#clip0_1379_250)">
<rect x="23.5" y="31.2273" width="38.2727" height="38.2727" rx="3.5" fill="#395B89"/>
<rect x="23.5" y="31.2273" width="38.2727" height="38.2727" rx="3.5" stroke="#5077AC"/>
<path d="M42.6338 47.5584C45.7324 47.5584 48.2442 45.0466 48.2442 41.948C48.2442 38.8495 45.7324 36.3376 42.6338 36.3376C39.5353 36.3376 37.0234 38.8495 37.0234 41.948C37.0234 45.0466 39.5353 47.5584 42.6338 47.5584Z" fill="#B5C9E4"/>
<path d="M53.8556 58.0779C53.8556 61.5634 53.8556 64.3896 42.6348 64.3896C31.4141 64.3896 31.4141 61.5634 31.4141 58.0779C31.4141 54.5925 36.4382 51.7662 42.6348 51.7662C48.8315 51.7662 53.8556 54.5925 53.8556 58.0779Z" fill="#B5C9E4"/>
<g filter="url(#filter1_d_1379_250)">
<rect x="48.0898" y="22" width="21.8182" height="21.8182" rx="10.9091" fill="#CEE0F8"/>
<path d="M58.0913 33.8182H53.5458C53.2882 33.8182 53.0725 33.7309 52.8985 33.5564C52.7246 33.3818 52.6373 33.166 52.6367 32.9091C52.6361 32.6521 52.7234 32.4364 52.8985 32.2618C53.0737 32.0873 53.2894 32 53.5458 32H58.0913V27.4545C58.0913 27.197 58.1785 26.9812 58.3531 26.8073C58.5276 26.6333 58.7434 26.546 59.0004 26.5454C59.2573 26.5448 59.4734 26.6321 59.6485 26.8073C59.8237 26.9824 59.9107 27.1982 59.9094 27.4545V32H64.4549C64.7125 32 64.9285 32.0873 65.1031 32.2618C65.2776 32.4364 65.3646 32.6521 65.364 32.9091C65.3634 33.166 65.2761 33.3821 65.1022 33.5573C64.9282 33.7324 64.7125 33.8194 64.4549 33.8182H59.9094V38.3636C59.9094 38.6212 59.8222 38.8373 59.6476 39.0118C59.4731 39.1864 59.2573 39.2733 59.0004 39.2727C58.7434 39.2721 58.5276 39.1848 58.3531 39.0109C58.1785 38.837 58.0913 38.6212 58.0913 38.3636V33.8182Z" fill="#17396B"/>
</g>
</g>
</g>
<defs>
<filter id="filter0_di_1379_250" x="0" y="0" width="92" height="94" filterUnits="userSpaceOnUse" color-interpolation-filters="sRGB">
<feFlood flood-opacity="0" result="BackgroundImageFix"/>
<feColorMatrix in="SourceAlpha" type="matrix" values="0 0 0 0 0 0 0 0 0 0 0 0 0 0 0 0 0 0 127 0" result="hardAlpha"/>
<feMorphology radius="2" operator="dilate" in="SourceAlpha" result="effect1_dropShadow_1379_250"/>
<feOffset/>
<feComposite in2="hardAlpha" operator="out"/>
<feColorMatrix type="matrix" values="0 0 0 0 0.455483 0 0 0 0 0.604369 0 0 0 0 0.802885 0 0 0 1 0"/>
<feBlend mode="normal" in2="BackgroundImageFix" result="effect1_dropShadow_1379_250"/>
<feBlend mode="normal" in="SourceGraphic" in2="effect1_dropShadow_1379_250" result="shape"/>
<feColorMatrix in="SourceAlpha" type="matrix" values="0 0 0 0 0 0 0 0 0 0 0 0 0 0 0 0 0 0 127 0" result="hardAlpha"/>
<feOffset dy="4"/>
<feGaussianBlur stdDeviation="2"/>
<feComposite in2="hardAlpha" operator="arithmetic" k2="-1" k3="1"/>
<feColorMatrix type="matrix" values="0 0 0 0 0 0 0 0 0 0 0 0 0 0 0 0 0 0 0.25 0"/>
<feBlend mode="normal" in2="shape" result="effect2_innerShadow_1379_250"/>
</filter>
<filter id="filter1_d_1379_250" x="44.0898" y="22" width="29.8164" height="29.8182" filterUnits="userSpaceOnUse" color-interpolation-filters="sRGB">
<feFlood flood-opacity="0" result="BackgroundImageFix"/>
<feColorMatrix in="SourceAlpha" type="matrix" values="0 0 0 0 0 0 0 0 0 0 0 0 0 0 0 0 0 0 127 0" result="hardAlpha"/>
<feOffset dy="4"/>
<feGaussianBlur stdDeviation="2"/>
<feComposite in2="hardAlpha" operator="out"/>
<feColorMatrix type="matrix" values="0 0 0 0 0 0 0 0 0 0 0 0 0 0 0 0 0 0 0.25 0"/>
<feBlend mode="normal" in2="BackgroundImageFix" result="effect1_dropShadow_1379_250"/>
<feBlend mode="normal" in="SourceGraphic" in2="effect1_dropShadow_1379_250" result="shape"/>
</filter>
<clipPath id="clip0_1379_250">
<rect width="52" height="52" fill="white" transform="translate(20 20)"/>
</clipPath>
</defs>
</svg>
