<svg width="92" height="92" viewBox="0 0 92 92" fill="none" xmlns="http://www.w3.org/2000/svg">
<g filter="url(#filter0_di_1397_164)">
<rect x="2" y="2" width="88" height="88" rx="16" fill="#17396B"/>
<rect x="3" y="3" width="86" height="86" rx="15" stroke="#3767AC" stroke-width="2"/>
<path fill-rule="evenodd" clip-rule="evenodd" d="M46.8341 50.1677C46.1501 50.1677 45.4728 50.3025 44.8409 50.5642C44.209 50.8259 43.6349 51.2095 43.1512 51.6932C42.6676 52.1768 42.2839 52.7509 42.0222 53.3828C41.7605 54.0146 41.6257 54.6919 41.6257 55.3758C41.6257 56.0597 41.7605 56.737 42.0222 57.3688C42.2839 58.0007 42.6676 58.5749 43.1512 59.0585C43.6349 59.5421 44.209 59.9257 44.8409 60.1874C45.4728 60.4492 46.1501 60.5839 46.8341 60.5839C48.2154 60.5839 49.5402 60.0352 50.5169 59.0585C51.4937 58.0818 52.0424 56.7571 52.0424 55.3758C52.0424 53.9945 51.4937 52.6699 50.5169 51.6932C49.5402 50.7165 48.2154 50.1677 46.8341 50.1677ZM44.6019 62.0719C43.0233 62.0719 41.5093 62.699 40.393 63.8152C39.2767 64.9314 38.6496 66.4454 38.6496 68.024C38.6496 68.8132 38.9631 69.5702 39.5213 70.1283C40.0794 70.6864 40.8364 71 41.6257 71H52.0424C52.8317 71 53.5887 70.6864 54.1469 70.1283C54.705 69.5702 55.0186 68.8132 55.0186 68.024C55.0186 66.4454 54.3915 64.9314 53.2752 63.8152C52.1589 62.699 50.6449 62.0719 49.0662 62.0719H44.6019ZM54.7507 57.465C55.2238 55.6635 55.0694 53.7546 54.3128 52.0526C53.5563 50.3506 52.2428 48.9569 50.5885 48.1009C51.2189 47.6701 51.9363 47.3832 52.6899 47.2605C53.4435 47.1378 54.2148 47.1822 54.9493 47.3907C55.6838 47.5992 56.3635 47.9666 56.9402 48.4669C57.517 48.9672 57.9766 49.5882 58.2867 50.2859C58.5967 50.9836 58.7496 51.7409 58.7344 52.5043C58.7192 53.2676 58.5364 54.0183 58.1989 54.7031C57.8614 55.3879 57.3775 55.9902 56.7813 56.4672C56.1852 56.9442 55.4915 57.2843 54.7493 57.4635L54.7507 57.465ZM57.9948 68.024H58.7388C59.5282 68.024 60.2852 67.7104 60.8433 67.1523C61.4015 66.5942 61.715 65.8372 61.715 65.0479C61.715 63.4693 61.0879 61.9554 59.9716 60.8392C58.8553 59.7229 57.3413 59.0959 55.7626 59.0959H54.1257C53.9233 59.4922 53.6889 59.8714 53.4249 60.2297C54.811 61.005 55.9653 62.136 56.7686 63.5061C57.5719 64.8762 57.9952 66.4358 57.9948 68.024ZM34.9293 52.3998C34.9291 51.4516 35.1877 50.5213 35.6774 49.7093C36.167 48.8973 36.869 48.2344 37.7077 47.792C38.5464 47.3496 39.49 47.1446 40.4366 47.199C41.3833 47.2535 42.2971 47.5653 43.0796 48.1009C41.4237 48.9551 40.1089 50.3486 39.3523 52.0512C38.5958 53.7539 38.4429 55.6637 38.9189 57.465C37.7817 57.1913 36.7697 56.5428 36.046 55.6239C35.3223 54.7051 34.9289 53.5694 34.9293 52.3998ZM39.5424 59.0959H37.9055C36.3268 59.0959 34.8128 59.7229 33.6965 60.8392C32.5802 61.9554 31.9531 63.4693 31.9531 65.0479C31.9531 65.8372 32.2667 66.5942 32.8248 67.1523C33.383 67.7104 34.14 68.024 34.9293 68.024H35.6734C35.673 66.4358 36.0962 64.8762 36.8996 63.5061C37.7029 62.136 38.8571 61.005 40.2433 60.2297C39.9792 59.8714 39.7448 59.4922 39.5424 59.0959Z" fill="#88A4CD"/>
<rect x="26.5" y="21.5" width="39.4762" height="18.0476" fill="#E7F0FD" stroke="#496FA5"/>
<path d="M64.4424 40.2976L59.2686 41.5906L59.2568 41.5935L59.2441 41.5984L47.3271 45.9314L53.4746 40.2976H64.4424Z" fill="#D9D9D9" stroke="#496FA5" stroke-width="0.5"/>
<line x1="34.3273" y1="36.0045" x2="58.1357" y2="35.7774" stroke="#496FA5"/>
<line x1="34.3273" y1="32.632" x2="58.1357" y2="32.4048" stroke="#496FA5"/>
<path opacity="0.3" d="M33.0741 27.3488L31.9774 28.0109L32.2691 26.7625L31.3008 25.9225L32.5783 25.8117L33.0741 24.6363L33.5729 25.8146L34.8504 25.9255L33.882 26.7655L34.1737 28.0138L33.0741 27.3488Z" fill="#496FA5"/>
<path d="M35.9896 25.5521L33.8925 25.3713L33.0729 23.4405L32.2533 25.3742L30.1562 25.5521L31.7487 26.9317L31.2704 28.9821L33.0729 27.8942L34.8754 28.9821L34.4 26.9317L35.9896 25.5521ZM33.0729 27.3488L31.9762 28.0109L32.2679 26.7625L31.2996 25.9225L32.5771 25.8117L33.0729 24.6363L33.5717 25.8146L34.8492 25.9255L33.8808 26.7655L34.1725 28.0138L33.0729 27.3488Z" fill="#496FA5"/>
<path opacity="0.3" d="M40.0741 27.3488L38.9774 28.0109L39.2691 26.7625L38.3008 25.9225L39.5783 25.8117L40.0741 24.6363L40.5729 25.8146L41.8504 25.9255L40.882 26.7655L41.1737 28.0138L40.0741 27.3488Z" fill="#496FA5"/>
<path d="M42.9896 25.5521L40.8925 25.3713L40.0729 23.4405L39.2533 25.3742L37.1562 25.5521L38.7487 26.9317L38.2704 28.9821L40.0729 27.8942L41.8754 28.9821L41.4 26.9317L42.9896 25.5521ZM40.0729 27.3488L38.9762 28.0109L39.2679 26.7625L38.2996 25.9225L39.5771 25.8117L40.0729 24.6363L40.5717 25.8146L41.8492 25.9255L40.8808 26.7655L41.1725 28.0138L40.0729 27.3488Z" fill="#496FA5"/>
<path opacity="0.3" d="M47.0741 27.3488L45.9774 28.0109L46.2691 26.7625L45.3008 25.9225L46.5783 25.8117L47.0741 24.6363L47.5729 25.8146L48.8504 25.9255L47.882 26.7655L48.1737 28.0138L47.0741 27.3488Z" fill="#496FA5"/>
<path d="M49.9896 25.5521L47.8925 25.3713L47.0729 23.4405L46.2533 25.3742L44.1562 25.5521L45.7487 26.9317L45.2704 28.9821L47.0729 27.8942L48.8754 28.9821L48.4 26.9317L49.9896 25.5521ZM47.0729 27.3488L45.9762 28.0109L46.2679 26.7625L45.2996 25.9225L46.5771 25.8117L47.0729 24.6363L47.5717 25.8146L48.8492 25.9255L47.8808 26.7655L48.1725 28.0138L47.0729 27.3488Z" fill="#496FA5"/>
<path opacity="0.3" d="M54.0741 27.3488L52.9774 28.0109L53.2691 26.7625L52.3008 25.9225L53.5783 25.8117L54.0741 24.6363L54.5729 25.8146L55.8504 25.9255L54.882 26.7655L55.1737 28.0138L54.0741 27.3488Z" fill="#496FA5"/>
<path d="M56.9896 25.5521L54.8925 25.3713L54.0729 23.4405L53.2533 25.3742L51.1562 25.5521L52.7487 26.9317L52.2704 28.9821L54.0729 27.8942L55.8754 28.9821L55.4 26.9317L56.9896 25.5521ZM54.0729 27.3488L52.9762 28.0109L53.2679 26.7625L52.2996 25.9225L53.5771 25.8117L54.0729 24.6363L54.5717 25.8146L55.8492 25.9255L54.8808 26.7655L55.1725 28.0138L54.0729 27.3488Z" fill="#496FA5"/>
</g>
<defs>
<filter id="filter0_di_1397_164" x="0" y="0" width="92" height="94" filterUnits="userSpaceOnUse" color-interpolation-filters="sRGB">
<feFlood flood-opacity="0" result="BackgroundImageFix"/>
<feColorMatrix in="SourceAlpha" type="matrix" values="0 0 0 0 0 0 0 0 0 0 0 0 0 0 0 0 0 0 127 0" result="hardAlpha"/>
<feMorphology radius="2" operator="dilate" in="SourceAlpha" result="effect1_dropShadow_1397_164"/>
<feOffset/>
<feComposite in2="hardAlpha" operator="out"/>
<feColorMatrix type="matrix" values="0 0 0 0 0.455483 0 0 0 0 0.604369 0 0 0 0 0.802885 0 0 0 1 0"/>
<feBlend mode="normal" in2="BackgroundImageFix" result="effect1_dropShadow_1397_164"/>
<feBlend mode="normal" in="SourceGraphic" in2="effect1_dropShadow_1397_164" result="shape"/>
<feColorMatrix in="SourceAlpha" type="matrix" values="0 0 0 0 0 0 0 0 0 0 0 0 0 0 0 0 0 0 127 0" result="hardAlpha"/>
<feOffset dy="4"/>
<feGaussianBlur stdDeviation="2"/>
<feComposite in2="hardAlpha" operator="arithmetic" k2="-1" k3="1"/>
<feColorMatrix type="matrix" values="0 0 0 0 0 0 0 0 0 0 0 0 0 0 0 0 0 0 0.25 0"/>
<feBlend mode="normal" in2="shape" result="effect2_innerShadow_1397_164"/>
</filter>
</defs>
</svg>
