<svg width="92" height="92" viewBox="0 0 92 92" fill="none" xmlns="http://www.w3.org/2000/svg">
<g filter="url(#filter0_di_1397_296)">
<rect x="2" y="2" width="88" height="88" rx="16" fill="#17396B"/>
<rect x="3" y="3" width="86" height="86" rx="15" stroke="#3767AC" stroke-width="2"/>
<g clip-path="url(#clip0_1397_296)">
<g filter="url(#filter1_d_1397_296)">
<path d="M69.8181 46.3945L60.9027 47.8747L36.2943 32.1636L43.4146 30.7533L69.8181 46.3945Z" fill="#E7F0FD" stroke="#496FA5" stroke-width="0.6"/>
<path d="M71.5252 53.6377L59.2822 56.9924L61.0872 48.4536L70.4037 46.9755L71.5252 53.6377Z" fill="#E7F0FD" stroke="#496FA5" stroke-width="0.6"/>
<path d="M60.5008 48.3307L58.687 56.9099L30.3679 37.4587L35.5412 32.3949L60.5008 48.3307Z" fill="#E7F0FD" stroke="#496FA5" stroke-width="0.6"/>
</g>
<g filter="url(#filter2_d_1397_296)">
<path d="M47.1943 48.6927L32.748 55.8666L27.3604 50.4789L40.8418 44.2992L47.1943 48.6927Z" fill="#E7F0FD" stroke="#496FA5" stroke-width="0.6"/>
<path d="M53.4307 53.4481L31.1162 64.5799L32.7217 56.5545L47.623 49.1033L53.4307 53.4481Z" fill="#E7F0FD" stroke="#496FA5" stroke-width="0.6"/>
<path d="M32.3643 56.3293L30.7529 64.3918L21.4482 55.0872L26.8232 50.7874L32.3643 56.3293Z" fill="#E7F0FD" stroke="#496FA5" stroke-width="0.6"/>
</g>
<g clip-path="url(#clip1_1397_296)">
<g filter="url(#filter3_f_1397_296)">
<path d="M28.6559 42.1936L30.3499 42.6059C30.3701 42.611 30.3887 42.6212 30.4039 42.6354C30.4191 42.6497 30.4305 42.6676 30.4369 42.6874L30.9586 44.351C30.9667 44.3763 30.9827 44.3981 31.0044 44.4134C31.0261 44.4286 31.0521 44.4364 31.0786 44.4356C31.105 44.4347 31.1305 44.4252 31.1511 44.4086C31.1717 44.392 31.1864 44.3691 31.1928 44.3434L31.6051 42.6494C31.6102 42.6292 31.6204 42.6106 31.6346 42.5953C31.6489 42.5801 31.6668 42.5688 31.6867 42.5623L33.3502 42.0407C33.3755 42.0326 33.3974 42.0165 33.4126 41.9949C33.4279 41.9732 33.4356 41.9472 33.4348 41.9207C33.4339 41.8942 33.4245 41.8688 33.4078 41.8482C33.3912 41.8275 33.3683 41.8129 33.3426 41.8065L31.6486 41.3942C31.6284 41.3891 31.6098 41.3789 31.5946 41.3646C31.5793 41.3504 31.568 41.3325 31.5615 41.3126L31.0399 39.649C31.0318 39.6238 31.0157 39.6019 30.9941 39.5867C30.9724 39.5714 30.9464 39.5636 30.9199 39.5645C30.8934 39.5653 30.868 39.5748 30.8474 39.5914C30.8268 39.6081 30.8121 39.631 30.8057 39.6566L30.3934 41.3507C30.3883 41.3709 30.3781 41.3895 30.3638 41.4047C30.3496 41.4199 30.3317 41.4313 30.3118 41.4377L28.6482 41.9593C28.623 41.9674 28.6011 41.9835 28.5859 42.0052C28.5706 42.0268 28.5628 42.0529 28.5637 42.0793C28.5646 42.1058 28.574 42.1313 28.5906 42.1519C28.6073 42.1725 28.6302 42.1872 28.6559 42.1936Z" fill="#E7F0FD"/>
<path d="M28.6559 42.1936L30.3499 42.6059C30.3701 42.611 30.3887 42.6212 30.4039 42.6354C30.4191 42.6497 30.4305 42.6676 30.4369 42.6874L30.9586 44.351C30.9667 44.3763 30.9827 44.3981 31.0044 44.4134C31.0261 44.4286 31.0521 44.4364 31.0786 44.4356C31.105 44.4347 31.1305 44.4252 31.1511 44.4086C31.1717 44.392 31.1864 44.3691 31.1928 44.3434L31.6051 42.6494C31.6102 42.6292 31.6204 42.6106 31.6346 42.5953C31.6489 42.5801 31.6668 42.5688 31.6867 42.5623L33.3502 42.0407C33.3755 42.0326 33.3974 42.0165 33.4126 41.9949C33.4279 41.9732 33.4356 41.9472 33.4348 41.9207C33.4339 41.8942 33.4245 41.8688 33.4078 41.8482C33.3912 41.8275 33.3683 41.8129 33.3426 41.8065L31.6486 41.3942C31.6284 41.3891 31.6098 41.3789 31.5946 41.3646C31.5793 41.3504 31.568 41.3325 31.5615 41.3126L31.0399 39.649C31.0318 39.6238 31.0157 39.6019 30.9941 39.5867C30.9724 39.5714 30.9464 39.5636 30.9199 39.5645C30.8934 39.5653 30.868 39.5748 30.8474 39.5914C30.8268 39.6081 30.8121 39.631 30.8057 39.6566L30.3934 41.3507C30.3883 41.3709 30.3781 41.3895 30.3638 41.4047C30.3496 41.4199 30.3317 41.4313 30.3118 41.4377L28.6482 41.9593C28.623 41.9674 28.6011 41.9835 28.5859 42.0052C28.5706 42.0268 28.5628 42.0529 28.5637 42.0793C28.5646 42.1058 28.574 42.1313 28.5906 42.1519C28.6073 42.1725 28.6302 42.1872 28.6559 42.1936Z" stroke="#E7F0FD" stroke-width="0.125" stroke-linecap="round" stroke-linejoin="round"/>
</g>
<path d="M28.6559 42.1936L30.3499 42.6059C30.3701 42.611 30.3887 42.6212 30.4039 42.6354C30.4191 42.6497 30.4305 42.6676 30.4369 42.6874L30.9586 44.351C30.9667 44.3763 30.9827 44.3981 31.0044 44.4134C31.0261 44.4286 31.0521 44.4364 31.0786 44.4356C31.105 44.4347 31.1305 44.4252 31.1511 44.4086C31.1717 44.392 31.1864 44.3691 31.1928 44.3434L31.6051 42.6494C31.6102 42.6292 31.6204 42.6106 31.6346 42.5953C31.6489 42.5801 31.6668 42.5688 31.6867 42.5623L33.3502 42.0407C33.3755 42.0326 33.3974 42.0165 33.4126 41.9949C33.4279 41.9732 33.4356 41.9472 33.4348 41.9207C33.4339 41.8942 33.4245 41.8688 33.4078 41.8482C33.3912 41.8275 33.3683 41.8129 33.3426 41.8065L31.6486 41.3942C31.6284 41.3891 31.6098 41.3789 31.5946 41.3646C31.5793 41.3504 31.568 41.3325 31.5615 41.3126L31.0399 39.649C31.0318 39.6238 31.0157 39.6019 30.9941 39.5867C30.9724 39.5714 30.9464 39.5636 30.9199 39.5645C30.8934 39.5653 30.868 39.5748 30.8474 39.5914C30.8268 39.6081 30.8121 39.631 30.8057 39.6566L30.3934 41.3507C30.3883 41.3709 30.3781 41.3895 30.3638 41.4047C30.3496 41.4199 30.3317 41.4313 30.3118 41.4377L28.6482 41.9593C28.623 41.9674 28.6011 41.9835 28.5859 42.0052C28.5706 42.0268 28.5628 42.0529 28.5637 42.0793C28.5646 42.1058 28.574 42.1313 28.5906 42.1519C28.6073 42.1725 28.6302 42.1872 28.6559 42.1936Z" fill="#E7F0FD" stroke="#E7F0FD" stroke-width="0.125" stroke-linecap="round" stroke-linejoin="round"/>
</g>
<g clip-path="url(#clip2_1397_296)">
<g filter="url(#filter4_f_1397_296)">
<path d="M23.6559 36.1936L25.3499 36.6059C25.3701 36.611 25.3887 36.6212 25.4039 36.6354C25.4191 36.6497 25.4305 36.6676 25.4369 36.6874L25.9586 38.351C25.9667 38.3763 25.9827 38.3981 26.0044 38.4134C26.0261 38.4286 26.0521 38.4364 26.0786 38.4356C26.105 38.4347 26.1305 38.4252 26.1511 38.4086C26.1717 38.392 26.1864 38.3691 26.1928 38.3434L26.6051 36.6494C26.6102 36.6292 26.6204 36.6106 26.6346 36.5953C26.6489 36.5801 26.6668 36.5688 26.6867 36.5623L28.3502 36.0407C28.3755 36.0326 28.3974 36.0165 28.4126 35.9949C28.4279 35.9732 28.4356 35.9472 28.4348 35.9207C28.4339 35.8942 28.4245 35.8688 28.4078 35.8482C28.3912 35.8275 28.3683 35.8129 28.3426 35.8065L26.6486 35.3942C26.6284 35.3891 26.6098 35.3789 26.5946 35.3646C26.5793 35.3504 26.568 35.3325 26.5615 35.3126L26.0399 33.649C26.0318 33.6238 26.0157 33.6019 25.9941 33.5867C25.9724 33.5714 25.9464 33.5636 25.9199 33.5645C25.8934 33.5653 25.868 33.5748 25.8474 33.5914C25.8268 33.6081 25.8121 33.631 25.8057 33.6566L25.3934 35.3507C25.3883 35.3709 25.3781 35.3895 25.3638 35.4047C25.3496 35.4199 25.3317 35.4313 25.3118 35.4377L23.6482 35.9593C23.623 35.9674 23.6011 35.9835 23.5859 36.0052C23.5706 36.0268 23.5628 36.0529 23.5637 36.0793C23.5646 36.1058 23.574 36.1313 23.5906 36.1519C23.6073 36.1725 23.6302 36.1872 23.6559 36.1936Z" fill="#E7F0FD"/>
<path d="M23.6559 36.1936L25.3499 36.6059C25.3701 36.611 25.3887 36.6212 25.4039 36.6354C25.4191 36.6497 25.4305 36.6676 25.4369 36.6874L25.9586 38.351C25.9667 38.3763 25.9827 38.3981 26.0044 38.4134C26.0261 38.4286 26.0521 38.4364 26.0786 38.4356C26.105 38.4347 26.1305 38.4252 26.1511 38.4086C26.1717 38.392 26.1864 38.3691 26.1928 38.3434L26.6051 36.6494C26.6102 36.6292 26.6204 36.6106 26.6346 36.5953C26.6489 36.5801 26.6668 36.5688 26.6867 36.5623L28.3502 36.0407C28.3755 36.0326 28.3974 36.0165 28.4126 35.9949C28.4279 35.9732 28.4356 35.9472 28.4348 35.9207C28.4339 35.8942 28.4245 35.8688 28.4078 35.8482C28.3912 35.8275 28.3683 35.8129 28.3426 35.8065L26.6486 35.3942C26.6284 35.3891 26.6098 35.3789 26.5946 35.3646C26.5793 35.3504 26.568 35.3325 26.5615 35.3126L26.0399 33.649C26.0318 33.6238 26.0157 33.6019 25.9941 33.5867C25.9724 33.5714 25.9464 33.5636 25.9199 33.5645C25.8934 33.5653 25.868 33.5748 25.8474 33.5914C25.8268 33.6081 25.8121 33.631 25.8057 33.6566L25.3934 35.3507C25.3883 35.3709 25.3781 35.3895 25.3638 35.4047C25.3496 35.4199 25.3317 35.4313 25.3118 35.4377L23.6482 35.9593C23.623 35.9674 23.6011 35.9835 23.5859 36.0052C23.5706 36.0268 23.5628 36.0529 23.5637 36.0793C23.5646 36.1058 23.574 36.1313 23.5906 36.1519C23.6073 36.1725 23.6302 36.1872 23.6559 36.1936Z" stroke="#E7F0FD" stroke-width="0.125" stroke-linecap="round" stroke-linejoin="round"/>
</g>
<path d="M23.6559 36.1936L25.3499 36.6059C25.3701 36.611 25.3887 36.6212 25.4039 36.6354C25.4191 36.6497 25.4305 36.6676 25.4369 36.6874L25.9586 38.351C25.9667 38.3763 25.9827 38.3981 26.0044 38.4134C26.0261 38.4286 26.0521 38.4364 26.0786 38.4356C26.105 38.4347 26.1305 38.4252 26.1511 38.4086C26.1717 38.392 26.1864 38.3691 26.1928 38.3434L26.6051 36.6494C26.6102 36.6292 26.6204 36.6106 26.6346 36.5953C26.6489 36.5801 26.6668 36.5688 26.6867 36.5623L28.3502 36.0407C28.3755 36.0326 28.3974 36.0165 28.4126 35.9949C28.4279 35.9732 28.4356 35.9472 28.4348 35.9207C28.4339 35.8942 28.4245 35.8688 28.4078 35.8482C28.3912 35.8275 28.3683 35.8129 28.3426 35.8065L26.6486 35.3942C26.6284 35.3891 26.6098 35.3789 26.5946 35.3646C26.5793 35.3504 26.568 35.3325 26.5615 35.3126L26.0399 33.649C26.0318 33.6238 26.0157 33.6019 25.9941 33.5867C25.9724 33.5714 25.9464 33.5636 25.9199 33.5645C25.8934 33.5653 25.868 33.5748 25.8474 33.5914C25.8268 33.6081 25.8121 33.631 25.8057 33.6566L25.3934 35.3507C25.3883 35.3709 25.3781 35.3895 25.3638 35.4047C25.3496 35.4199 25.3317 35.4313 25.3118 35.4377L23.6482 35.9593C23.623 35.9674 23.6011 35.9835 23.5859 36.0052C23.5706 36.0268 23.5628 36.0529 23.5637 36.0793C23.5646 36.1058 23.574 36.1313 23.5906 36.1519C23.6073 36.1725 23.6302 36.1872 23.6559 36.1936Z" fill="#E7F0FD" stroke="#E7F0FD" stroke-width="0.125" stroke-linecap="round" stroke-linejoin="round"/>
</g>
<g clip-path="url(#clip3_1397_296)">
<g filter="url(#filter5_f_1397_296)">
<path d="M22.6559 46.1936L24.3499 46.6059C24.3701 46.611 24.3887 46.6212 24.4039 46.6354C24.4191 46.6497 24.4305 46.6676 24.4369 46.6874L24.9586 48.351C24.9667 48.3763 24.9827 48.3981 25.0044 48.4134C25.0261 48.4286 25.0521 48.4364 25.0786 48.4356C25.105 48.4347 25.1305 48.4252 25.1511 48.4086C25.1717 48.392 25.1864 48.3691 25.1928 48.3434L25.6051 46.6494C25.6102 46.6292 25.6204 46.6106 25.6346 46.5953C25.6489 46.5801 25.6668 46.5688 25.6867 46.5623L27.3502 46.0407C27.3755 46.0326 27.3974 46.0165 27.4126 45.9949C27.4279 45.9732 27.4356 45.9472 27.4348 45.9207C27.4339 45.8942 27.4245 45.8688 27.4078 45.8482C27.3912 45.8275 27.3683 45.8129 27.3426 45.8065L25.6486 45.3942C25.6284 45.3891 25.6098 45.3789 25.5946 45.3646C25.5793 45.3504 25.568 45.3325 25.5615 45.3126L25.0399 43.649C25.0318 43.6238 25.0157 43.6019 24.9941 43.5867C24.9724 43.5714 24.9464 43.5636 24.9199 43.5645C24.8934 43.5653 24.868 43.5748 24.8474 43.5914C24.8268 43.6081 24.8121 43.631 24.8057 43.6566L24.3934 45.3507C24.3883 45.3709 24.3781 45.3895 24.3638 45.4047C24.3496 45.4199 24.3317 45.4313 24.3118 45.4377L22.6482 45.9593C22.623 45.9674 22.6011 45.9835 22.5859 46.0052C22.5706 46.0268 22.5628 46.0529 22.5637 46.0793C22.5646 46.1058 22.574 46.1313 22.5906 46.1519C22.6073 46.1725 22.6302 46.1872 22.6559 46.1936Z" fill="#E7F0FD"/>
<path d="M22.6559 46.1936L24.3499 46.6059C24.3701 46.611 24.3887 46.6212 24.4039 46.6354C24.4191 46.6497 24.4305 46.6676 24.4369 46.6874L24.9586 48.351C24.9667 48.3763 24.9827 48.3981 25.0044 48.4134C25.0261 48.4286 25.0521 48.4364 25.0786 48.4356C25.105 48.4347 25.1305 48.4252 25.1511 48.4086C25.1717 48.392 25.1864 48.3691 25.1928 48.3434L25.6051 46.6494C25.6102 46.6292 25.6204 46.6106 25.6346 46.5953C25.6489 46.5801 25.6668 46.5688 25.6867 46.5623L27.3502 46.0407C27.3755 46.0326 27.3974 46.0165 27.4126 45.9949C27.4279 45.9732 27.4356 45.9472 27.4348 45.9207C27.4339 45.8942 27.4245 45.8688 27.4078 45.8482C27.3912 45.8275 27.3683 45.8129 27.3426 45.8065L25.6486 45.3942C25.6284 45.3891 25.6098 45.3789 25.5946 45.3646C25.5793 45.3504 25.568 45.3325 25.5615 45.3126L25.0399 43.649C25.0318 43.6238 25.0157 43.6019 24.9941 43.5867C24.9724 43.5714 24.9464 43.5636 24.9199 43.5645C24.8934 43.5653 24.868 43.5748 24.8474 43.5914C24.8268 43.6081 24.8121 43.631 24.8057 43.6566L24.3934 45.3507C24.3883 45.3709 24.3781 45.3895 24.3638 45.4047C24.3496 45.4199 24.3317 45.4313 24.3118 45.4377L22.6482 45.9593C22.623 45.9674 22.6011 45.9835 22.5859 46.0052C22.5706 46.0268 22.5628 46.0529 22.5637 46.0793C22.5646 46.1058 22.574 46.1313 22.5906 46.1519C22.6073 46.1725 22.6302 46.1872 22.6559 46.1936Z" stroke="#E7F0FD" stroke-width="0.125" stroke-linecap="round" stroke-linejoin="round"/>
</g>
<path d="M23.2419 46.1452L24.5124 46.4544C24.5276 46.4582 24.5415 46.4659 24.5529 46.4766C24.5644 46.4873 24.5729 46.5007 24.5777 46.5156L24.9689 47.7633C24.975 47.7822 24.9871 47.7986 25.0033 47.81C25.0195 47.8215 25.0391 47.8273 25.0589 47.8267C25.0788 47.826 25.0979 47.8189 25.1133 47.8065C25.1288 47.794 25.1398 47.7768 25.1446 47.7576L25.4538 46.4871C25.4577 46.4719 25.4653 46.4579 25.476 46.4465C25.4867 46.4351 25.5001 46.4266 25.515 46.4217L26.7627 46.0305C26.7816 46.0245 26.798 46.0124 26.8095 45.9961C26.8209 45.9799 26.8267 45.9604 26.8261 45.9405C26.8254 45.9207 26.8183 45.9016 26.8059 45.8861C26.7934 45.8707 26.7762 45.8597 26.757 45.8548L25.4865 45.5456C25.4713 45.5418 25.4573 45.5342 25.4459 45.5235C25.4345 45.5128 25.426 45.4993 25.4212 45.4845L25.0299 44.2368C25.0239 44.2179 25.0118 44.2014 24.9956 44.19C24.9793 44.1786 24.9598 44.1727 24.9399 44.1734C24.9201 44.174 24.901 44.1811 24.8855 44.1936C24.8701 44.206 24.8591 44.2232 24.8543 44.2425L24.5451 45.513C24.5412 45.5282 24.5336 45.5421 24.5229 45.5535C24.5122 45.5649 24.4988 45.5735 24.4839 45.5783L23.2362 45.9695C23.2173 45.9756 23.2008 45.9877 23.1894 46.0039C23.178 46.0201 23.1721 46.0397 23.1728 46.0595C23.1734 46.0794 23.1805 46.0985 23.193 46.1139C23.2055 46.1294 23.2226 46.1404 23.2419 46.1452Z" fill="#E7F0FD" stroke="#E7F0FD" stroke-width="0.125" stroke-linecap="round" stroke-linejoin="round"/>
</g>
</g>
</g>
<defs>
<filter id="filter0_di_1397_296" x="0" y="0" width="92" height="94" filterUnits="userSpaceOnUse" color-interpolation-filters="sRGB">
<feFlood flood-opacity="0" result="BackgroundImageFix"/>
<feColorMatrix in="SourceAlpha" type="matrix" values="0 0 0 0 0 0 0 0 0 0 0 0 0 0 0 0 0 0 127 0" result="hardAlpha"/>
<feMorphology radius="2" operator="dilate" in="SourceAlpha" result="effect1_dropShadow_1397_296"/>
<feOffset/>
<feComposite in2="hardAlpha" operator="out"/>
<feColorMatrix type="matrix" values="0 0 0 0 0.455483 0 0 0 0 0.604369 0 0 0 0 0.802885 0 0 0 1 0"/>
<feBlend mode="normal" in2="BackgroundImageFix" result="effect1_dropShadow_1397_296"/>
<feBlend mode="normal" in="SourceGraphic" in2="effect1_dropShadow_1397_296" result="shape"/>
<feColorMatrix in="SourceAlpha" type="matrix" values="0 0 0 0 0 0 0 0 0 0 0 0 0 0 0 0 0 0 127 0" result="hardAlpha"/>
<feOffset dy="4"/>
<feGaussianBlur stdDeviation="2"/>
<feComposite in2="hardAlpha" operator="arithmetic" k2="-1" k3="1"/>
<feColorMatrix type="matrix" values="0 0 0 0 0 0 0 0 0 0 0 0 0 0 0 0 0 0 0.25 0"/>
<feBlend mode="normal" in2="shape" result="effect2_innerShadow_1397_296"/>
</filter>
<filter id="filter1_d_1397_296" x="25.8984" y="30.4377" width="49.9688" height="36.9751" filterUnits="userSpaceOnUse" color-interpolation-filters="sRGB">
<feFlood flood-opacity="0" result="BackgroundImageFix"/>
<feColorMatrix in="SourceAlpha" type="matrix" values="0 0 0 0 0 0 0 0 0 0 0 0 0 0 0 0 0 0 127 0" result="hardAlpha"/>
<feOffset dy="6"/>
<feGaussianBlur stdDeviation="2"/>
<feComposite in2="hardAlpha" operator="out"/>
<feColorMatrix type="matrix" values="0 0 0 0 0 0 0 0 0 0 0 0 0 0 0 0 0 0 0.25 0"/>
<feBlend mode="normal" in2="BackgroundImageFix" result="effect1_dropShadow_1397_296"/>
<feBlend mode="normal" in="SourceGraphic" in2="effect1_dropShadow_1397_296" result="shape"/>
</filter>
<filter id="filter2_d_1397_296" x="17" y="43.9554" width="41" height="29.166" filterUnits="userSpaceOnUse" color-interpolation-filters="sRGB">
<feFlood flood-opacity="0" result="BackgroundImageFix"/>
<feColorMatrix in="SourceAlpha" type="matrix" values="0 0 0 0 0 0 0 0 0 0 0 0 0 0 0 0 0 0 127 0" result="hardAlpha"/>
<feOffset dy="4"/>
<feGaussianBlur stdDeviation="2"/>
<feComposite in2="hardAlpha" operator="out"/>
<feColorMatrix type="matrix" values="0 0 0 0 0 0 0 0 0 0 0 0 0 0 0 0 0 0 0.25 0"/>
<feBlend mode="normal" in2="BackgroundImageFix" result="effect1_dropShadow_1397_296"/>
<feBlend mode="normal" in="SourceGraphic" in2="effect1_dropShadow_1397_296" result="shape"/>
</filter>
<filter id="filter3_f_1397_296" x="24.5" y="35.5019" width="12.9961" height="12.9962" filterUnits="userSpaceOnUse" color-interpolation-filters="sRGB">
<feFlood flood-opacity="0" result="BackgroundImageFix"/>
<feBlend mode="normal" in="SourceGraphic" in2="BackgroundImageFix" result="shape"/>
<feGaussianBlur stdDeviation="2" result="effect1_foregroundBlur_1397_296"/>
</filter>
<filter id="filter4_f_1397_296" x="19.5" y="29.5019" width="12.9961" height="12.9962" filterUnits="userSpaceOnUse" color-interpolation-filters="sRGB">
<feFlood flood-opacity="0" result="BackgroundImageFix"/>
<feBlend mode="normal" in="SourceGraphic" in2="BackgroundImageFix" result="shape"/>
<feGaussianBlur stdDeviation="2" result="effect1_foregroundBlur_1397_296"/>
</filter>
<filter id="filter5_f_1397_296" x="18.5" y="39.5019" width="12.9961" height="12.9962" filterUnits="userSpaceOnUse" color-interpolation-filters="sRGB">
<feFlood flood-opacity="0" result="BackgroundImageFix"/>
<feBlend mode="normal" in="SourceGraphic" in2="BackgroundImageFix" result="shape"/>
<feGaussianBlur stdDeviation="2" result="effect1_foregroundBlur_1397_296"/>
</filter>
<clipPath id="clip0_1397_296">
<rect width="52" height="52" fill="white" transform="translate(20 20)"/>
</clipPath>
<clipPath id="clip1_1397_296">
<rect width="8" height="8" fill="white" transform="translate(27 38)"/>
</clipPath>
<clipPath id="clip2_1397_296">
<rect width="8" height="8" fill="white" transform="translate(22 32)"/>
</clipPath>
<clipPath id="clip3_1397_296">
<rect width="8" height="8" fill="white" transform="translate(21 42)"/>
</clipPath>
</defs>
</svg>
