<svg width="92" height="92" viewBox="0 0 92 92" fill="none" xmlns="http://www.w3.org/2000/svg">
<g filter="url(#filter0_di_1384_357)">
<rect x="2" y="2" width="88" height="88" rx="16" fill="#17396B"/>
<rect x="3" y="3" width="86" height="86" rx="15" stroke="#3767AC" stroke-width="2"/>
<g clip-path="url(#clip0_1384_357)">
<path d="M46.2422 29.3385L72.1881 24.5946V70L46.9075 63.9008L46.2422 29.3385Z" fill="#B5C9E4"/>
<path d="M19.6811 22L44.8811 29.5676L46.2432 63.2776L19 67.4054L19.6811 22Z" fill="#B5C9E4"/>
<g filter="url(#filter1_d_1384_357)">
<path d="M45.5518 29.4408V63.6517L21.2275 64.389L21.9707 25.0179L45.5518 29.4408Z" fill="#375A8E" stroke="#5679A8" stroke-width="0.6"/>
<path d="M69.7256 66.9969L46.1514 63.6795V29.3474L69.7256 26.1346V66.9969Z" fill="#375A8E" stroke="#5679A8" stroke-width="0.6"/>
</g>
<rect x="49.8789" y="35.485" width="4.03266" height="4.03279" stroke="#B5C9E4" stroke-width="0.5"/>
<line y1="-0.3" x2="13.598" y2="-0.3" transform="matrix(0.998017 0.0629451 -0.0629414 0.998017 49.6289 44.3006)" stroke="#B5C9E4" stroke-width="0.6"/>
<line y1="-0.3" x2="13.598" y2="-0.3" transform="matrix(0.998017 0.0629451 -0.0629414 0.998017 49.6289 47.3225)" stroke="#B5C9E4" stroke-width="0.6"/>
<line y1="-0.3" x2="13.598" y2="-0.3" transform="matrix(0.998017 0.0629451 -0.0629414 0.998017 49.6289 50.3442)" stroke="#B5C9E4" stroke-width="0.6"/>
<g clip-path="url(#clip1_1384_357)">
<g filter="url(#filter2_d_1384_357)">
<path d="M30.0637 37.6637C30.0429 37.6635 30.0225 37.6685 30.0041 37.6781C29.9858 37.6878 29.9701 37.7019 29.9586 37.7192C29.9471 37.7364 29.94 37.7563 29.938 37.7769C29.9361 37.7976 29.9393 37.8184 29.9474 37.8375L30.0193 38.0072L31.2916 40.9741C31.3003 40.9942 31.3141 41.0118 31.3317 41.0249C31.3492 41.0381 31.37 41.0464 31.3918 41.049C31.4136 41.0516 31.4357 41.0484 31.4558 41.0397C31.476 41.0311 31.4936 41.0173 31.5067 40.9997L33.8551 37.8638C33.869 37.8452 33.8775 37.8231 33.8796 37.8C33.8817 37.7768 33.8773 37.7536 33.8669 37.7328C33.8565 37.712 33.8405 37.6946 33.8208 37.6823C33.801 37.6701 33.7783 37.6637 33.755 37.6637H30.0637ZM39.3862 38.4784L38.0957 41.4911C38.0876 41.5102 38.0843 41.5309 38.0862 41.5515C38.0881 41.5721 38.095 41.5919 38.1064 41.6092C38.1178 41.6264 38.1333 41.6406 38.1515 41.6504C38.1697 41.6602 38.1901 41.6653 38.2108 41.6653H41.3682C41.3905 41.6653 41.4124 41.6593 41.4316 41.648C41.4508 41.6367 41.4667 41.6205 41.4775 41.601C41.4884 41.5815 41.4938 41.5595 41.4933 41.5372C41.4927 41.5149 41.4862 41.4932 41.4745 41.4743L39.6072 38.4618C39.5952 38.4424 39.578 38.4267 39.5576 38.4163C39.5373 38.406 39.5145 38.4014 39.4917 38.4032C39.4689 38.4049 39.447 38.4128 39.4284 38.426C39.4098 38.4393 39.3952 38.4574 39.3862 38.4784ZM28.9158 38.4631L27.0491 41.4743C27.0374 41.4932 27.0309 41.5149 27.0303 41.5372C27.0298 41.5595 27.0352 41.5815 27.0461 41.601C27.0569 41.6205 27.0728 41.6367 27.092 41.648C27.1112 41.6593 27.1331 41.6653 27.1554 41.6653H30.3128C30.3335 41.6652 30.3539 41.6601 30.3721 41.6503C30.3903 41.6404 30.4058 41.6262 30.4172 41.6089C30.4285 41.5917 30.4354 41.5718 30.4372 41.5512C30.4391 41.5306 30.4357 41.5098 30.4276 41.4908L29.1346 38.4796C29.1253 38.4592 29.1108 38.4416 29.0924 38.4287C29.074 38.4158 29.0525 38.4081 29.0301 38.4064C29.0077 38.4047 28.9853 38.4091 28.9652 38.4191C28.945 38.429 28.928 38.4442 28.9158 38.4631ZM38.5528 37.6637H34.631C34.6197 37.6636 34.6086 37.6667 34.5989 37.6726C34.5893 37.6785 34.5815 37.687 34.5764 37.6971C34.5713 37.7072 34.5692 37.7186 34.5702 37.7298C34.5712 37.7411 34.5754 37.7519 34.5822 37.7609L37.0807 41.0891C37.087 41.0977 37.0956 41.1044 37.1054 41.1086C37.1152 41.1128 37.1259 41.1143 37.1365 41.1131C37.1471 41.1118 37.1571 41.1078 37.1657 41.1014C37.1742 41.095 37.1809 41.0864 37.1851 41.0766L38.5006 38.0076L38.6068 37.7468C38.6106 37.7379 38.6121 37.7282 38.6113 37.7185C38.6104 37.7088 38.6073 37.6995 38.6021 37.6913C38.5968 37.6832 38.5897 37.6764 38.5813 37.6716C38.5729 37.6667 38.5634 37.664 38.5537 37.6637H38.5528ZM33.73 50.6689L30.9343 42.7441C30.9261 42.7211 30.911 42.7012 30.891 42.6872C30.871 42.6731 30.8471 42.6656 30.8227 42.6657H27.0619C27.0402 42.6656 27.0188 42.6717 27.0003 42.6832C26.9818 42.6946 26.9669 42.7111 26.9572 42.7307C26.9476 42.7502 26.9437 42.7721 26.9459 42.7937C26.9481 42.8154 26.9564 42.836 26.9697 42.8532L33.7222 51.6008C33.7451 51.6304 33.7777 51.651 33.8143 51.6588C33.8508 51.6666 33.889 51.6613 33.922 51.6436C33.9552 51.6262 33.981 51.5974 33.9947 51.5625C34.0084 51.5276 34.0091 51.4889 33.9967 51.4536L33.73 50.6689ZM41.461 42.6657H37.7003C37.676 42.6657 37.6523 42.6732 37.6324 42.6873C37.6126 42.7013 37.5976 42.7212 37.5896 42.7441L34.5197 51.4401C34.5068 51.4766 34.5073 51.5165 34.5212 51.5527C34.5351 51.5888 34.5614 51.6189 34.5954 51.6374C34.6294 51.6558 34.6688 51.6616 34.7067 51.6536C34.7445 51.6456 34.7783 51.6245 34.802 51.5939L41.5533 42.8532C41.5666 42.836 41.5749 42.8154 41.5771 42.7937C41.5793 42.7721 41.5753 42.7502 41.5657 42.7307C41.5561 42.7111 41.5412 42.6946 41.5227 42.6832C41.5042 42.6717 41.4828 42.6656 41.461 42.6657ZM34.3615 39.1308L36.1122 41.4652C36.1261 41.4838 36.1346 41.5059 36.1367 41.529C36.1388 41.5521 36.1344 41.5754 36.124 41.5961C36.1136 41.6169 36.0976 41.6344 36.0779 41.6466C36.0581 41.6588 36.0354 41.6653 36.0121 41.6653H32.5108C32.4876 41.6653 32.4648 41.6588 32.4451 41.6466C32.4253 41.6344 32.4094 41.6169 32.399 41.5961C32.3886 41.5754 32.3842 41.5521 32.3863 41.529C32.3884 41.5059 32.3969 41.4838 32.4108 41.4652L34.1614 39.1308C34.1731 39.1153 34.1882 39.1027 34.2056 39.094C34.2229 39.0853 34.2421 39.0808 34.2615 39.0808C34.2809 39.0808 34.3 39.0853 34.3174 39.094C34.3348 39.1027 34.3499 39.1153 34.3615 39.1308ZM34.1427 48.8319L32.0263 42.8323C32.0196 42.8135 32.0176 42.7933 32.0204 42.7735C32.0231 42.7537 32.0306 42.7348 32.0421 42.7185C32.0537 42.7022 32.069 42.6889 32.0867 42.6797C32.1045 42.6705 32.1241 42.6657 32.1441 42.6657H36.3788C36.3988 42.6657 36.4185 42.6705 36.4363 42.6797C36.454 42.6889 36.4693 42.7022 36.4808 42.7185C36.4924 42.7348 36.4999 42.7537 36.5026 42.7735C36.5054 42.7933 36.5033 42.8135 36.4967 42.8323L34.3793 48.8319C34.3707 48.8562 34.3547 48.8773 34.3336 48.8922C34.3125 48.9071 34.2873 48.9152 34.2615 48.9152C34.2356 48.9152 34.2104 48.9071 34.1893 48.8922C34.1682 48.8773 34.1523 48.8562 34.1436 48.8319H34.1427Z" fill="#CEE0F8"/>
</g>
</g>
</g>
</g>
<defs>
<filter id="filter0_di_1384_357" x="0" y="0" width="92" height="94" filterUnits="userSpaceOnUse" color-interpolation-filters="sRGB">
<feFlood flood-opacity="0" result="BackgroundImageFix"/>
<feColorMatrix in="SourceAlpha" type="matrix" values="0 0 0 0 0 0 0 0 0 0 0 0 0 0 0 0 0 0 127 0" result="hardAlpha"/>
<feMorphology radius="2" operator="dilate" in="SourceAlpha" result="effect1_dropShadow_1384_357"/>
<feOffset/>
<feComposite in2="hardAlpha" operator="out"/>
<feColorMatrix type="matrix" values="0 0 0 0 0.455483 0 0 0 0 0.604369 0 0 0 0 0.802885 0 0 0 1 0"/>
<feBlend mode="normal" in2="BackgroundImageFix" result="effect1_dropShadow_1384_357"/>
<feBlend mode="normal" in="SourceGraphic" in2="effect1_dropShadow_1384_357" result="shape"/>
<feColorMatrix in="SourceAlpha" type="matrix" values="0 0 0 0 0 0 0 0 0 0 0 0 0 0 0 0 0 0 127 0" result="hardAlpha"/>
<feOffset dy="4"/>
<feGaussianBlur stdDeviation="2"/>
<feComposite in2="hardAlpha" operator="arithmetic" k2="-1" k3="1"/>
<feColorMatrix type="matrix" values="0 0 0 0 0 0 0 0 0 0 0 0 0 0 0 0 0 0 0.25 0"/>
<feBlend mode="normal" in2="shape" result="effect2_innerShadow_1384_357"/>
</filter>
<filter id="filter1_d_1384_357" x="16.9219" y="24.6585" width="57.1055" height="50.6838" filterUnits="userSpaceOnUse" color-interpolation-filters="sRGB">
<feFlood flood-opacity="0" result="BackgroundImageFix"/>
<feColorMatrix in="SourceAlpha" type="matrix" values="0 0 0 0 0 0 0 0 0 0 0 0 0 0 0 0 0 0 127 0" result="hardAlpha"/>
<feOffset dy="4"/>
<feGaussianBlur stdDeviation="2"/>
<feComposite in2="hardAlpha" operator="out"/>
<feColorMatrix type="matrix" values="0 0 0 0 0 0 0 0 0 0 0 0 0 0 0 0 0 0 0.25 0"/>
<feBlend mode="normal" in2="BackgroundImageFix" result="effect1_dropShadow_1384_357"/>
<feBlend mode="normal" in="SourceGraphic" in2="effect1_dropShadow_1384_357" result="shape"/>
</filter>
<filter id="filter2_d_1384_357" x="22.9453" y="37.6637" width="22.6328" height="21.9987" filterUnits="userSpaceOnUse" color-interpolation-filters="sRGB">
<feFlood flood-opacity="0" result="BackgroundImageFix"/>
<feColorMatrix in="SourceAlpha" type="matrix" values="0 0 0 0 0 0 0 0 0 0 0 0 0 0 0 0 0 0 127 0" result="hardAlpha"/>
<feOffset dy="4"/>
<feGaussianBlur stdDeviation="2"/>
<feComposite in2="hardAlpha" operator="out"/>
<feColorMatrix type="matrix" values="0 0 0 0 0.292206 0 0 0 0 0.431244 0 0 0 0 0.620192 0 0 0 1 0"/>
<feBlend mode="normal" in2="BackgroundImageFix" result="effect1_dropShadow_1384_357"/>
<feBlend mode="normal" in="SourceGraphic" in2="effect1_dropShadow_1384_357" result="shape"/>
</filter>
<clipPath id="clip0_1384_357">
<rect width="52" height="52" fill="white" transform="translate(20 20)"/>
</clipPath>
<clipPath id="clip1_1384_357">
<rect width="16.0059" height="16.0064" fill="white" transform="translate(26.2578 36.6633)"/>
</clipPath>
</defs>
</svg>
