<svg width="92" height="92" viewBox="0 0 92 92" fill="none" xmlns="http://www.w3.org/2000/svg">
<g filter="url(#filter0_di_1403_376)">
<rect x="2" y="2" width="88" height="88" rx="16" fill="#17396B"/>
<rect x="3" y="3" width="86" height="86" rx="15" stroke="#3767AC" stroke-width="2"/>
<g clip-path="url(#clip0_1403_376)">
<path d="M63.7793 38.8932L57.3896 52.8376H33.8516L28.5635 34.0358L63.7793 38.8932Z" fill="#375A8E" stroke="#A0C0EF" stroke-width="2"/>
<circle cx="39" cy="60.0625" r="3.2875" fill="#375A8E" stroke="#A0C0EF" stroke-width="1.3"/>
<circle cx="53.4375" cy="60.0625" r="3.2875" fill="#375A8E" stroke="#A0C0EF" stroke-width="1.3"/>
<path d="M23.8164 25.9375L28.5024 34.1501" stroke="#A0C0EF" stroke-width="2"/>
<path d="M18 25.2751C17.4477 25.2751 17 25.7228 17 26.2751C17 26.8274 17.4477 27.2751 18 27.2751V25.2751ZM18 26.2751V27.2751H24.5625V26.2751V25.2751H18V26.2751Z" fill="#A0C0EF"/>
<path d="M58.6875 27.9502C64.0999 27.9502 68.4873 32.3376 68.4873 37.75C68.4873 43.1624 64.0999 47.5498 58.6875 47.5498C53.2751 47.5498 48.8877 43.1624 48.8877 37.75C48.8877 32.3376 53.2751 27.9502 58.6875 27.9502Z" fill="#375A8E" stroke="#A0C0EF" stroke-width="1.4"/>
<path d="M54.0938 36.4375L57.8921 40.2359C57.929 40.2727 57.9791 40.2935 58.0312 40.2935C58.0834 40.2935 58.1335 40.2727 58.1704 40.2359L68.5312 29.875" fill="#375A8E"/>
<path d="M54.0938 36.4375L57.8921 40.2359C57.929 40.2727 57.9791 40.2935 58.0312 40.2935C58.0834 40.2935 58.1335 40.2727 58.1704 40.2359L68.5312 29.875" stroke="#A0C0EF" stroke-width="1.4" stroke-linecap="round"/>
</g>
</g>
<defs>
<filter id="filter0_di_1403_376" x="0" y="0" width="92" height="94" filterUnits="userSpaceOnUse" color-interpolation-filters="sRGB">
<feFlood flood-opacity="0" result="BackgroundImageFix"/>
<feColorMatrix in="SourceAlpha" type="matrix" values="0 0 0 0 0 0 0 0 0 0 0 0 0 0 0 0 0 0 127 0" result="hardAlpha"/>
<feMorphology radius="2" operator="dilate" in="SourceAlpha" result="effect1_dropShadow_1403_376"/>
<feOffset/>
<feComposite in2="hardAlpha" operator="out"/>
<feColorMatrix type="matrix" values="0 0 0 0 0.455483 0 0 0 0 0.604369 0 0 0 0 0.802885 0 0 0 1 0"/>
<feBlend mode="normal" in2="BackgroundImageFix" result="effect1_dropShadow_1403_376"/>
<feBlend mode="normal" in="SourceGraphic" in2="effect1_dropShadow_1403_376" result="shape"/>
<feColorMatrix in="SourceAlpha" type="matrix" values="0 0 0 0 0 0 0 0 0 0 0 0 0 0 0 0 0 0 127 0" result="hardAlpha"/>
<feOffset dy="4"/>
<feGaussianBlur stdDeviation="2"/>
<feComposite in2="hardAlpha" operator="arithmetic" k2="-1" k3="1"/>
<feColorMatrix type="matrix" values="0 0 0 0 0 0 0 0 0 0 0 0 0 0 0 0 0 0 0.25 0"/>
<feBlend mode="normal" in2="shape" result="effect2_innerShadow_1403_376"/>
</filter>
<clipPath id="clip0_1403_376">
<rect width="52" height="52" fill="white" transform="translate(20 17)"/>
</clipPath>
</defs>
</svg>
