<svg width="92" height="92" viewBox="0 0 92 92" fill="none" xmlns="http://www.w3.org/2000/svg">
<g filter="url(#filter0_di_1388_489)">
<rect x="2" y="2" width="88" height="88" rx="16" fill="#17396B"/>
<rect x="3" y="3" width="86" height="86" rx="15" stroke="#3767AC" stroke-width="2"/>
<rect x="29.141" y="26.9707" width="28.7143" height="35.5714" transform="rotate(-8.81429 29.141 26.9707)" fill="#375A8E" stroke="#CEE0F8"/>
<rect x="26.7852" y="29.3572" width="28.7143" height="35.5714" fill="#375A8E" stroke="#CEE0F8"/>
<rect width="5.71428" height="27" transform="translate(24 32.2857)" fill="#375A8E"/>
<line x1="24" y1="31.7857" x2="29.7143" y2="31.7857" stroke="#CEE0F8"/>
<line x1="24" y1="34.7857" x2="29.7143" y2="34.7857" stroke="#CEE0F8"/>
<line x1="24" y1="37.7857" x2="29.7143" y2="37.7857" stroke="#CEE0F8"/>
<line x1="24" y1="40.7857" x2="29.7143" y2="40.7857" stroke="#CEE0F8"/>
<line x1="24" y1="43.7857" x2="29.7143" y2="43.7857" stroke="#CEE0F8"/>
<line x1="24" y1="46.7857" x2="29.7143" y2="46.7857" stroke="#CEE0F8"/>
<line x1="24" y1="49.7857" x2="29.7143" y2="49.7857" stroke="#CEE0F8"/>
<line x1="24" y1="52.7857" x2="29.7143" y2="52.7857" stroke="#CEE0F8"/>
<line x1="24" y1="55.7857" x2="29.7143" y2="55.7857" stroke="#CEE0F8"/>
<line x1="24" y1="58.7857" x2="29.7143" y2="58.7857" stroke="#CEE0F8"/>
<g clip-path="url(#clip0_1388_489)">
<path d="M69.8861 52.6826C69.3841 52.1803 68.5924 52.1572 68.055 52.5992L67.8181 52.3623L67.1698 53.014L67.2247 53.0695L66.9944 53.2849L66.9421 53.2346C66.4481 52.74 65.8787 52.2272 65.1207 52.5335C64.0896 52.9515 63.597 55.1829 63.0267 56.0272C62.529 56.7614 61.2804 57.5392 60.1641 58.1252C60.2198 58.1803 60.3298 58.3454 60.403 58.364C60.7133 58.2272 61.0293 58.1052 61.3364 57.9623C61.9776 57.6643 62.6016 57.3172 63.153 56.8712C64.2816 55.9577 64.7364 53.2189 65.5418 53.1652C65.8787 53.1409 66.2076 53.4537 66.4864 53.76L60.6533 59.2143L60.8836 59.4446L55.257 65.0809L53.489 68.2009L53.7227 68.4346L53.2204 69.1012C53.135 69.2017 53.115 69.3337 53.1758 69.3946C53.2356 69.4537 53.3678 69.4337 53.4676 69.3477L54.135 68.8472L54.3684 69.0803L57.4884 67.3126L63.1156 61.6763L63.1201 61.6809L63.355 61.9157L69.4958 55.34L69.5584 55.4026L70.2061 54.7509L69.9698 54.5143C70.4121 53.9769 70.3884 53.1852 69.8861 52.6826ZM54.417 68.7249L53.8447 68.1526L55.3204 65.5486L57.021 67.2494L54.417 68.7249ZM63.3553 61.512L61.0587 59.2152L61.4867 58.7923L63.7807 61.086L63.3553 61.512ZM69.5578 54.998L67.5736 53.0137L67.8187 52.7672L69.8024 54.7514L69.5578 54.998Z" fill="#B5C9E4"/>
</g>
<line x1="34.2852" y1="47.8857" x2="50.2851" y2="47.8857" stroke="#CEE0F8" stroke-width="0.8"/>
<line x1="34.2852" y1="50.8857" x2="50.2851" y2="50.8857" stroke="#CEE0F8" stroke-width="0.8"/>
<line x1="34.2852" y1="53.8857" x2="50.2851" y2="53.8857" stroke="#CEE0F8" stroke-width="0.8"/>
<line x1="34.2852" y1="56.8857" x2="50.2851" y2="56.8857" stroke="#CEE0F8" stroke-width="0.8"/>
<g clip-path="url(#clip1_1388_489)">
<path d="M37.7148 44.2858C35.5091 44.2858 33.7148 42.4915 33.7148 40.2858C33.7148 38.0801 35.5091 36.2858 37.7148 36.2858C39.9206 36.2858 41.7148 38.0801 41.7148 40.2858C41.7148 42.4915 39.9206 44.2858 37.7148 44.2858ZM37.7148 36.8572C35.8234 36.8572 34.2863 38.3943 34.2863 40.2858C34.2863 42.1772 35.8234 43.7143 37.7148 43.7143C39.6063 43.7143 41.1434 42.1772 41.1434 40.2858C41.1434 38.3943 39.6063 36.8572 37.7148 36.8572Z" fill="#CEE0F8"/>
<path d="M36.8571 40.8572H36.2857C36.1257 40.8572 36 40.7315 36 40.5715C36 40.4115 36.1257 40.2857 36.2857 40.2857H36.8571C37.3314 40.2857 37.7143 39.9029 37.7143 39.4286C37.7143 38.9543 37.3314 38.5715 36.8571 38.5715H36.2857C36.1257 38.5715 36 38.4457 36 38.2857C36 38.1257 36.1257 38 36.2857 38H36.8571C37.236 38 37.5994 38.1505 37.8673 38.4184C38.1352 38.6864 38.2857 39.0497 38.2857 39.4286C38.2857 39.8075 38.1352 40.1708 37.8673 40.4388C37.5994 40.7067 37.236 40.8572 36.8571 40.8572Z" fill="#CEE0F8"/>
<path d="M39.1429 39.7143H36.2857C36.1257 39.7143 36 39.5886 36 39.4286C36 39.2686 36.1257 39.1429 36.2857 39.1429H39.1429C39.3029 39.1429 39.4286 39.2686 39.4286 39.4286C39.4286 39.5886 39.3029 39.7143 39.1429 39.7143ZM39.1429 38.5715H36.2857C36.1257 38.5715 36 38.4457 36 38.2857C36 38.1257 36.1257 38 36.2857 38H39.1429C39.3029 38 39.4286 38.1257 39.4286 38.2857C39.4286 38.4457 39.3029 38.5715 39.1429 38.5715ZM37.4286 42.5715C37.3371 42.5715 37.2457 42.5257 37.1886 42.4457L36.0457 40.7315C36.0063 40.6686 35.9929 40.5927 36.0086 40.5202C36.0243 40.4476 36.0677 40.384 36.1296 40.343C36.1915 40.302 36.2669 40.2868 36.3399 40.3007C36.4128 40.3145 36.4775 40.3563 36.52 40.4172L37.6629 42.1315C37.7486 42.2629 37.7143 42.44 37.5829 42.5257C37.5314 42.56 37.48 42.5715 37.4229 42.5715H37.4286Z" fill="#CEE0F8"/>
</g>
</g>
<defs>
<filter id="filter0_di_1388_489" x="0" y="0" width="92" height="94" filterUnits="userSpaceOnUse" color-interpolation-filters="sRGB">
<feFlood flood-opacity="0" result="BackgroundImageFix"/>
<feColorMatrix in="SourceAlpha" type="matrix" values="0 0 0 0 0 0 0 0 0 0 0 0 0 0 0 0 0 0 127 0" result="hardAlpha"/>
<feMorphology radius="2" operator="dilate" in="SourceAlpha" result="effect1_dropShadow_1388_489"/>
<feOffset/>
<feComposite in2="hardAlpha" operator="out"/>
<feColorMatrix type="matrix" values="0 0 0 0 0.455483 0 0 0 0 0.604369 0 0 0 0 0.802885 0 0 0 1 0"/>
<feBlend mode="normal" in2="BackgroundImageFix" result="effect1_dropShadow_1388_489"/>
<feBlend mode="normal" in="SourceGraphic" in2="effect1_dropShadow_1388_489" result="shape"/>
<feColorMatrix in="SourceAlpha" type="matrix" values="0 0 0 0 0 0 0 0 0 0 0 0 0 0 0 0 0 0 127 0" result="hardAlpha"/>
<feOffset dy="4"/>
<feGaussianBlur stdDeviation="2"/>
<feComposite in2="hardAlpha" operator="arithmetic" k2="-1" k3="1"/>
<feColorMatrix type="matrix" values="0 0 0 0 0 0 0 0 0 0 0 0 0 0 0 0 0 0 0.25 0"/>
<feBlend mode="normal" in2="shape" result="effect2_innerShadow_1388_489"/>
</filter>
<clipPath id="clip0_1388_489">
<rect width="18.2857" height="18.2857" fill="white" transform="translate(52.5703 51.7143)"/>
</clipPath>
<clipPath id="clip1_1388_489">
<rect width="9.14285" height="9.14285" fill="white" transform="translate(33.1445 35.7143)"/>
</clipPath>
</defs>
</svg>
