<svg width="92" height="92" viewBox="0 0 92 92" fill="none" xmlns="http://www.w3.org/2000/svg">
<g filter="url(#filter0_di_1379_191)">
<rect x="2" y="2" width="88" height="88" rx="16" fill="#17396B"/>
<rect x="3" y="3" width="86" height="86" rx="15" stroke="#3767AC" stroke-width="2"/>
<g clip-path="url(#clip0_1379_191)">
<g filter="url(#filter1_d_1379_191)">
<path d="M47.0156 39.3322V64.6906L26.7148 60.3937V34.4982L47.0156 39.3322Z" fill="#7D93B1" stroke="#080410" stroke-width="0.5"/>
<path d="M67.8203 57.5187L47.5195 64.6467V39.4113L67.8203 35.5842V57.5187Z" fill="#B5C9E4" stroke="#080410" stroke-width="0.5"/>
<path d="M67.0488 35.2679L47.2725 39.9769L27.5869 34.2474L49.5664 30.5844L67.0488 35.2679Z" fill="#537AAF" stroke="#080410" stroke-width="0.5"/>
<g filter="url(#filter2_d_1379_191)">
<path d="M27.0465 33.7965L47.27 39.5749L44.8889 47.6647L23 39.5749L27.0465 33.7965Z" fill="#B5C9E4"/>
<path d="M46.959 39.7457L44.7246 47.3375L23.3906 39.4528L27.1484 34.0856L46.959 39.7457Z" stroke="#080410" stroke-width="0.5"/>
</g>
<g filter="url(#filter3_d_1379_191)">
<path d="M47.3529 39.6033L67.4927 34.9516L70.3817 41.8857L50.1592 47.6646L47.3529 39.6033Z" fill="#B5C9E4"/>
<path d="M67.343 35.2429L70.0424 41.7229L50.3175 47.359L47.6798 39.7839L67.343 35.2429Z" stroke="#080410" stroke-width="0.5"/>
</g>
<line x1="49.832" y1="30.9073" x2="49.832" y2="38.9971" stroke="#080410" stroke-width="0.5"/>
</g>
<g clip-path="url(#clip1_1379_191)">
<path d="M22.75 57C22.75 57.6894 22.8858 58.3721 23.1496 59.0091C23.4135 59.646 23.8002 60.2248 24.2877 60.7123C24.7752 61.1998 25.354 61.5865 25.9909 61.8504C26.6279 62.1142 27.3106 62.25 28 62.25C28.6894 62.25 29.3721 62.1142 30.0091 61.8504C30.646 61.5865 31.2248 61.1998 31.7123 60.7123C32.1998 60.2248 32.5865 59.646 32.8504 59.0091C33.1142 58.3721 33.25 57.6894 33.25 57C33.25 55.6076 32.6969 54.2723 31.7123 53.2877C30.7277 52.3031 29.3924 51.75 28 51.75C26.6076 51.75 25.2723 52.3031 24.2877 53.2877C23.3031 54.2723 22.75 55.6076 22.75 57Z" fill="#B4C8E2" stroke="#080410" stroke-width="0.8" stroke-linecap="round" stroke-linejoin="round"/>
<path d="M26.25 57H29.75" stroke="#080410" stroke-width="0.8" stroke-linecap="round" stroke-linejoin="round"/>
<path d="M28 55.25V58.75" stroke="#080410" stroke-width="0.8" stroke-linecap="round" stroke-linejoin="round"/>
</g>
</g>
</g>
<defs>
<filter id="filter0_di_1379_191" x="0" y="0" width="92" height="94" filterUnits="userSpaceOnUse" color-interpolation-filters="sRGB">
<feFlood flood-opacity="0" result="BackgroundImageFix"/>
<feColorMatrix in="SourceAlpha" type="matrix" values="0 0 0 0 0 0 0 0 0 0 0 0 0 0 0 0 0 0 127 0" result="hardAlpha"/>
<feMorphology radius="2" operator="dilate" in="SourceAlpha" result="effect1_dropShadow_1379_191"/>
<feOffset/>
<feComposite in2="hardAlpha" operator="out"/>
<feColorMatrix type="matrix" values="0 0 0 0 0.455483 0 0 0 0 0.604369 0 0 0 0 0.802885 0 0 0 1 0"/>
<feBlend mode="normal" in2="BackgroundImageFix" result="effect1_dropShadow_1379_191"/>
<feBlend mode="normal" in="SourceGraphic" in2="effect1_dropShadow_1379_191" result="shape"/>
<feColorMatrix in="SourceAlpha" type="matrix" values="0 0 0 0 0 0 0 0 0 0 0 0 0 0 0 0 0 0 127 0" result="hardAlpha"/>
<feOffset dy="4"/>
<feGaussianBlur stdDeviation="2"/>
<feComposite in2="hardAlpha" operator="arithmetic" k2="-1" k3="1"/>
<feColorMatrix type="matrix" values="0 0 0 0 0 0 0 0 0 0 0 0 0 0 0 0 0 0 0.25 0"/>
<feBlend mode="normal" in2="shape" result="effect2_innerShadow_1379_191"/>
</filter>
<filter id="filter1_d_1379_191" x="19" y="30.3295" width="55.3828" height="42.6705" filterUnits="userSpaceOnUse" color-interpolation-filters="sRGB">
<feFlood flood-opacity="0" result="BackgroundImageFix"/>
<feColorMatrix in="SourceAlpha" type="matrix" values="0 0 0 0 0 0 0 0 0 0 0 0 0 0 0 0 0 0 127 0" result="hardAlpha"/>
<feOffset dy="4"/>
<feGaussianBlur stdDeviation="2"/>
<feComposite in2="hardAlpha" operator="out"/>
<feColorMatrix type="matrix" values="0 0 0 0 0 0 0 0 0 0 0 0 0 0 0 0 0 0 0.25 0"/>
<feBlend mode="normal" in2="BackgroundImageFix" result="effect1_dropShadow_1379_191"/>
<feBlend mode="normal" in="SourceGraphic" in2="effect1_dropShadow_1379_191" result="shape"/>
</filter>
<filter id="filter2_d_1379_191" x="19" y="33.7965" width="32.2695" height="21.8682" filterUnits="userSpaceOnUse" color-interpolation-filters="sRGB">
<feFlood flood-opacity="0" result="BackgroundImageFix"/>
<feColorMatrix in="SourceAlpha" type="matrix" values="0 0 0 0 0 0 0 0 0 0 0 0 0 0 0 0 0 0 127 0" result="hardAlpha"/>
<feOffset dy="4"/>
<feGaussianBlur stdDeviation="2"/>
<feComposite in2="hardAlpha" operator="out"/>
<feColorMatrix type="matrix" values="0 0 0 0 0 0 0 0 0 0 0 0 0 0 0 0 0 0 0.25 0"/>
<feBlend mode="normal" in2="BackgroundImageFix" result="effect1_dropShadow_1379_191"/>
<feBlend mode="normal" in="SourceGraphic" in2="effect1_dropShadow_1379_191" result="shape"/>
</filter>
<filter id="filter3_d_1379_191" x="43.3516" y="34.9516" width="31.0312" height="20.713" filterUnits="userSpaceOnUse" color-interpolation-filters="sRGB">
<feFlood flood-opacity="0" result="BackgroundImageFix"/>
<feColorMatrix in="SourceAlpha" type="matrix" values="0 0 0 0 0 0 0 0 0 0 0 0 0 0 0 0 0 0 127 0" result="hardAlpha"/>
<feOffset dy="4"/>
<feGaussianBlur stdDeviation="2"/>
<feComposite in2="hardAlpha" operator="out"/>
<feColorMatrix type="matrix" values="0 0 0 0 0 0 0 0 0 0 0 0 0 0 0 0 0 0 0.25 0"/>
<feBlend mode="normal" in2="BackgroundImageFix" result="effect1_dropShadow_1379_191"/>
<feBlend mode="normal" in="SourceGraphic" in2="effect1_dropShadow_1379_191" result="shape"/>
</filter>
<clipPath id="clip0_1379_191">
<rect width="52" height="52" fill="white" transform="translate(20 20)"/>
</clipPath>
<clipPath id="clip1_1379_191">
<rect width="14" height="14" fill="white" transform="translate(21 50)"/>
</clipPath>
</defs>
</svg>
